<svg width="414" height="760" viewBox="0 0 414 760" fill="none" xmlns="http://www.w3.org/2000/svg">
<path d="M404.703 292.524C297.884 493.421 48.2776 569.605 -152.809 462.686C-353.895 355.766 -430.313 106.232 -323.494 -94.6657C-216.675 -295.563 32.9312 -371.747 234.017 -264.828C435.103 -157.908 511.522 91.6263 404.703 292.524Z" fill="url(#paint0_linear_1_522)"/>
<path d="M279.419 358.465C172.6 559.362 -77.0065 635.546 -278.093 528.627C-479.179 421.707 -555.597 172.173 -448.778 -28.7246C-341.959 -229.622 -92.3528 -305.806 108.733 -198.887C309.819 -91.9674 386.238 157.567 279.419 358.465Z" fill="url(#paint1_linear_1_522)"/>
<path d="M252.264 269.795C145.445 470.692 -104.161 546.877 -305.247 439.957C-506.333 333.038 -582.752 83.5032 -475.933 -117.394C-369.114 -318.292 -119.507 -394.476 81.5787 -287.556C282.665 -180.637 359.083 68.8978 252.264 269.795Z" fill="url(#paint2_linear_1_522)"/>
<defs>
<linearGradient id="paint0_linear_1_522" x1="292.386" y1="-506.857" x2="-129.048" y2="963.263" gradientUnits="userSpaceOnUse">
<stop stop-color="#C72FF8"/>
<stop offset="0.615902" stop-color="#C635F8" stop-opacity="0.357268"/>
<stop offset="0.958257" stop-color="#C638F8" stop-opacity="0"/>
</linearGradient>
<linearGradient id="paint1_linear_1_522" x1="-141.085" y1="444.614" x2="-4.61583" y2="891.275" gradientUnits="userSpaceOnUse">
<stop stop-color="#4B95F6"/>
<stop offset="0.958257" stop-color="#C638F8" stop-opacity="0"/>
</linearGradient>
<linearGradient id="paint2_linear_1_522" x1="-365.919" y1="-626.238" x2="-40.0536" y2="685.312" gradientUnits="userSpaceOnUse">
<stop stop-color="#5264F9"/>
<stop offset="1" stop-color="#3AF9EF"/>
</linearGradient>
</defs>
</svg>
